<?xml version="1.0" encoding="utf-8"?>
<!-- Generator: Adobe Illustrator 22.1.0, SVG Export Plug-In . SVG Version: 6.00 Build 0)  -->
<svg version="1.1" id="Layer_1" xmlns="http://www.w3.org/2000/svg" xmlns:xlink="http://www.w3.org/1999/xlink" x="0px" y="0px"
	 viewBox="0 0 1982.4 2064" style="enable-background:new 0 0 1982.4 2064;" xml:space="preserve">
<style type="text/css">
	.st0{fill:none;}
	.st1{fill:#E6E6E6;}
	.st2{fill:#C1272D;}
	.st3{fill:#4D4D4D;}
	.st4{fill:url(#SVGID_12_);}
	.st5{fill:url(#SVGID_13_);}
	.st6{fill:url(#SVGID_14_);}
	.st7{fill:url(#SVGID_15_);}
	.st8{fill:url(#SVGID_16_);}
	.st9{fill:url(#SVGID_17_);}
	.st10{fill:url(#SVGID_18_);}
	.st11{fill:url(#SVGID_19_);}
	.st12{fill:url(#SVGID_20_);}
	.st13{fill:url(#SVGID_21_);}
	.st14{fill:url(#SVGID_22_);}
</style>
<pattern  y="2064" width="192" height="96" patternUnits="userSpaceOnUse" id="SVGID_1_" viewBox="0 -96 192 96" style="overflow:visible;">
	<g>
		<rect y="-96" class="st0" width="192" height="96"/>
		<g>
			<rect y="-96" class="st0" width="192" height="96"/>
			<g>
				<polygon class="st0" points="0,0 192,0 192,-96 0,-96 				"/>
				<g>
					<polygon class="st0" points="0,-96 192,-96 192,0 0,0 					"/>
					<polygon class="st1" points="12,-96 0,-96 0,0 12,0 					"/>
					<polygon class="st2" points="24,-96 12,-96 12,0 24,0 					"/>
					<polygon class="st1" points="36,-96 24,-96 24,0 36,0 					"/>
					<polygon class="st2" points="48,-96 36,-96 36,0 48,0 					"/>
					<polygon class="st1" points="60,-96 48,-96 48,0 60,0 					"/>
					<polygon class="st2" points="72,-96 60,-96 60,0 72,0 					"/>
					<polygon class="st1" points="84,-96 72,-96 72,0 84,0 					"/>
					<polygon class="st2" points="96,-96 84,-96 84,0 96,0 					"/>
					<polygon class="st1" points="108,-96 96,-96 96,0 108,0 					"/>
					<polygon class="st2" points="120,-96 108,-96 108,0 120,0 					"/>
					<polygon class="st1" points="132,-96 120,-96 120,0 132,0 					"/>
					<polygon class="st2" points="144,-96 132,-96 132,0 144,0 					"/>
					<polygon class="st1" points="156,-96 144,-96 144,0 156,0 					"/>
					<polygon class="st2" points="168,-96 156,-96 156,0 168,0 					"/>
					<polygon class="st1" points="180,-96 168,-96 168,0 180,0 					"/>
					<polygon class="st2" points="192,-96 180,-96 180,0 192,0 					"/>
				</g>
			</g>
		</g>
	</g>
</pattern>
<pattern  y="2064" width="192" height="96" patternUnits="userSpaceOnUse" id="SVGID_10_" viewBox="0 -96 192 96" style="overflow:visible;">
	<g>
		<rect y="-96" class="st0" width="192" height="96"/>
		<g>
			<rect y="-96" class="st0" width="192" height="96"/>
			<g>
				<polygon class="st0" points="0,0 192,0 192,-96 0,-96 				"/>
				<g>
					<polygon class="st0" points="0,-96 192,-96 192,0 0,0 					"/>
					<polygon class="st1" points="12,-96 0,-96 0,0 12,0 					"/>
					<polygon class="st2" points="24,-96 12,-96 12,0 24,0 					"/>
					<polygon class="st1" points="36,-96 24,-96 24,0 36,0 					"/>
					<polygon class="st2" points="48,-96 36,-96 36,0 48,0 					"/>
					<polygon class="st1" points="60,-96 48,-96 48,0 60,0 					"/>
					<polygon class="st2" points="72,-96 60,-96 60,0 72,0 					"/>
					<polygon class="st1" points="84,-96 72,-96 72,0 84,0 					"/>
					<polygon class="st2" points="96,-96 84,-96 84,0 96,0 					"/>
					<polygon class="st1" points="108,-96 96,-96 96,0 108,0 					"/>
					<polygon class="st2" points="120,-96 108,-96 108,0 120,0 					"/>
					<polygon class="st1" points="132,-96 120,-96 120,0 132,0 					"/>
					<polygon class="st2" points="144,-96 132,-96 132,0 144,0 					"/>
					<polygon class="st1" points="156,-96 144,-96 144,0 156,0 					"/>
					<polygon class="st2" points="168,-96 156,-96 156,0 168,0 					"/>
					<polygon class="st1" points="180,-96 168,-96 168,0 180,0 					"/>
					<polygon class="st2" points="192,-96 180,-96 180,0 192,0 					"/>
				</g>
			</g>
		</g>
	</g>
</pattern>
<pattern  y="2064" width="192" height="96" patternUnits="userSpaceOnUse" id="SVGID_11_" viewBox="0 -96 192 96" style="overflow:visible;">
	<g>
		<rect y="-96" class="st0" width="192" height="96"/>
		<g>
			<rect y="-96" class="st0" width="192" height="96"/>
			<g>
				<polygon class="st0" points="0,0 192,0 192,-96 0,-96 				"/>
				<g>
					<polygon class="st0" points="0,-96 192,-96 192,0 0,0 					"/>
					<polygon class="st1" points="12,-96 0,-96 0,0 12,0 					"/>
					<polygon class="st2" points="24,-96 12,-96 12,0 24,0 					"/>
					<polygon class="st1" points="36,-96 24,-96 24,0 36,0 					"/>
					<polygon class="st2" points="48,-96 36,-96 36,0 48,0 					"/>
					<polygon class="st1" points="60,-96 48,-96 48,0 60,0 					"/>
					<polygon class="st2" points="72,-96 60,-96 60,0 72,0 					"/>
					<polygon class="st1" points="84,-96 72,-96 72,0 84,0 					"/>
					<polygon class="st2" points="96,-96 84,-96 84,0 96,0 					"/>
					<polygon class="st1" points="108,-96 96,-96 96,0 108,0 					"/>
					<polygon class="st2" points="120,-96 108,-96 108,0 120,0 					"/>
					<polygon class="st1" points="132,-96 120,-96 120,0 132,0 					"/>
					<polygon class="st2" points="144,-96 132,-96 132,0 144,0 					"/>
					<polygon class="st1" points="156,-96 144,-96 144,0 156,0 					"/>
					<polygon class="st2" points="168,-96 156,-96 156,0 168,0 					"/>
					<polygon class="st1" points="180,-96 168,-96 168,0 180,0 					"/>
					<polygon class="st2" points="192,-96 180,-96 180,0 192,0 					"/>
				</g>
			</g>
		</g>
	</g>
</pattern>
<pattern  y="2064" width="192" height="96" patternUnits="userSpaceOnUse" id="SVGID_2_" viewBox="0 -96 192 96" style="overflow:visible;">
	<g>
		<rect y="-96" class="st0" width="192" height="96"/>
		<g>
			<rect y="-96" class="st0" width="192" height="96"/>
			<g>
				<polygon class="st0" points="0,0 192,0 192,-96 0,-96 				"/>
				<g>
					<polygon class="st0" points="0,-96 192,-96 192,0 0,0 					"/>
					<polygon class="st1" points="12,-96 0,-96 0,0 12,0 					"/>
					<polygon class="st2" points="24,-96 12,-96 12,0 24,0 					"/>
					<polygon class="st1" points="36,-96 24,-96 24,0 36,0 					"/>
					<polygon class="st2" points="48,-96 36,-96 36,0 48,0 					"/>
					<polygon class="st1" points="60,-96 48,-96 48,0 60,0 					"/>
					<polygon class="st2" points="72,-96 60,-96 60,0 72,0 					"/>
					<polygon class="st1" points="84,-96 72,-96 72,0 84,0 					"/>
					<polygon class="st2" points="96,-96 84,-96 84,0 96,0 					"/>
					<polygon class="st1" points="108,-96 96,-96 96,0 108,0 					"/>
					<polygon class="st2" points="120,-96 108,-96 108,0 120,0 					"/>
					<polygon class="st1" points="132,-96 120,-96 120,0 132,0 					"/>
					<polygon class="st2" points="144,-96 132,-96 132,0 144,0 					"/>
					<polygon class="st1" points="156,-96 144,-96 144,0 156,0 					"/>
					<polygon class="st2" points="168,-96 156,-96 156,0 168,0 					"/>
					<polygon class="st1" points="180,-96 168,-96 168,0 180,0 					"/>
					<polygon class="st2" points="192,-96 180,-96 180,0 192,0 					"/>
				</g>
			</g>
		</g>
	</g>
</pattern>
<pattern  y="2064" width="192" height="96" patternUnits="userSpaceOnUse" id="SVGID_3_" viewBox="0 -96 192 96" style="overflow:visible;">
	<g>
		<rect y="-96" class="st0" width="192" height="96"/>
		<g>
			<rect y="-96" class="st0" width="192" height="96"/>
			<g>
				<polygon class="st0" points="0,0 192,0 192,-96 0,-96 				"/>
				<g>
					<polygon class="st0" points="0,-96 192,-96 192,0 0,0 					"/>
					<polygon class="st1" points="12,-96 0,-96 0,0 12,0 					"/>
					<polygon class="st2" points="24,-96 12,-96 12,0 24,0 					"/>
					<polygon class="st1" points="36,-96 24,-96 24,0 36,0 					"/>
					<polygon class="st2" points="48,-96 36,-96 36,0 48,0 					"/>
					<polygon class="st1" points="60,-96 48,-96 48,0 60,0 					"/>
					<polygon class="st2" points="72,-96 60,-96 60,0 72,0 					"/>
					<polygon class="st1" points="84,-96 72,-96 72,0 84,0 					"/>
					<polygon class="st2" points="96,-96 84,-96 84,0 96,0 					"/>
					<polygon class="st1" points="108,-96 96,-96 96,0 108,0 					"/>
					<polygon class="st2" points="120,-96 108,-96 108,0 120,0 					"/>
					<polygon class="st1" points="132,-96 120,-96 120,0 132,0 					"/>
					<polygon class="st2" points="144,-96 132,-96 132,0 144,0 					"/>
					<polygon class="st1" points="156,-96 144,-96 144,0 156,0 					"/>
					<polygon class="st2" points="168,-96 156,-96 156,0 168,0 					"/>
					<polygon class="st1" points="180,-96 168,-96 168,0 180,0 					"/>
					<polygon class="st2" points="192,-96 180,-96 180,0 192,0 					"/>
				</g>
			</g>
		</g>
	</g>
</pattern>
<pattern  y="2064" width="192" height="96" patternUnits="userSpaceOnUse" id="SVGID_4_" viewBox="0 -96 192 96" style="overflow:visible;">
	<g>
		<rect y="-96" class="st0" width="192" height="96"/>
		<g>
			<rect y="-96" class="st0" width="192" height="96"/>
			<g>
				<polygon class="st0" points="0,0 192,0 192,-96 0,-96 				"/>
				<g>
					<polygon class="st0" points="0,-96 192,-96 192,0 0,0 					"/>
					<polygon class="st1" points="12,-96 0,-96 0,0 12,0 					"/>
					<polygon class="st2" points="24,-96 12,-96 12,0 24,0 					"/>
					<polygon class="st1" points="36,-96 24,-96 24,0 36,0 					"/>
					<polygon class="st2" points="48,-96 36,-96 36,0 48,0 					"/>
					<polygon class="st1" points="60,-96 48,-96 48,0 60,0 					"/>
					<polygon class="st2" points="72,-96 60,-96 60,0 72,0 					"/>
					<polygon class="st1" points="84,-96 72,-96 72,0 84,0 					"/>
					<polygon class="st2" points="96,-96 84,-96 84,0 96,0 					"/>
					<polygon class="st1" points="108,-96 96,-96 96,0 108,0 					"/>
					<polygon class="st2" points="120,-96 108,-96 108,0 120,0 					"/>
					<polygon class="st1" points="132,-96 120,-96 120,0 132,0 					"/>
					<polygon class="st2" points="144,-96 132,-96 132,0 144,0 					"/>
					<polygon class="st1" points="156,-96 144,-96 144,0 156,0 					"/>
					<polygon class="st2" points="168,-96 156,-96 156,0 168,0 					"/>
					<polygon class="st1" points="180,-96 168,-96 168,0 180,0 					"/>
					<polygon class="st2" points="192,-96 180,-96 180,0 192,0 					"/>
				</g>
			</g>
		</g>
	</g>
</pattern>
<pattern  y="2064" width="192" height="96" patternUnits="userSpaceOnUse" id="SVGID_5_" viewBox="0 -96 192 96" style="overflow:visible;">
	<g>
		<rect y="-96" class="st0" width="192" height="96"/>
		<g>
			<rect y="-96" class="st0" width="192" height="96"/>
			<g>
				<polygon class="st0" points="0,0 192,0 192,-96 0,-96 				"/>
				<g>
					<polygon class="st0" points="0,-96 192,-96 192,0 0,0 					"/>
					<polygon class="st1" points="12,-96 0,-96 0,0 12,0 					"/>
					<polygon class="st2" points="24,-96 12,-96 12,0 24,0 					"/>
					<polygon class="st1" points="36,-96 24,-96 24,0 36,0 					"/>
					<polygon class="st2" points="48,-96 36,-96 36,0 48,0 					"/>
					<polygon class="st1" points="60,-96 48,-96 48,0 60,0 					"/>
					<polygon class="st2" points="72,-96 60,-96 60,0 72,0 					"/>
					<polygon class="st1" points="84,-96 72,-96 72,0 84,0 					"/>
					<polygon class="st2" points="96,-96 84,-96 84,0 96,0 					"/>
					<polygon class="st1" points="108,-96 96,-96 96,0 108,0 					"/>
					<polygon class="st2" points="120,-96 108,-96 108,0 120,0 					"/>
					<polygon class="st1" points="132,-96 120,-96 120,0 132,0 					"/>
					<polygon class="st2" points="144,-96 132,-96 132,0 144,0 					"/>
					<polygon class="st1" points="156,-96 144,-96 144,0 156,0 					"/>
					<polygon class="st2" points="168,-96 156,-96 156,0 168,0 					"/>
					<polygon class="st1" points="180,-96 168,-96 168,0 180,0 					"/>
					<polygon class="st2" points="192,-96 180,-96 180,0 192,0 					"/>
				</g>
			</g>
		</g>
	</g>
</pattern>
<pattern  y="2064" width="192" height="96" patternUnits="userSpaceOnUse" id="SVGID_6_" viewBox="0 -96 192 96" style="overflow:visible;">
	<g>
		<rect y="-96" class="st0" width="192" height="96"/>
		<g>
			<rect y="-96" class="st0" width="192" height="96"/>
			<g>
				<polygon class="st0" points="0,0 192,0 192,-96 0,-96 				"/>
				<g>
					<polygon class="st0" points="0,-96 192,-96 192,0 0,0 					"/>
					<polygon class="st1" points="12,-96 0,-96 0,0 12,0 					"/>
					<polygon class="st2" points="24,-96 12,-96 12,0 24,0 					"/>
					<polygon class="st1" points="36,-96 24,-96 24,0 36,0 					"/>
					<polygon class="st2" points="48,-96 36,-96 36,0 48,0 					"/>
					<polygon class="st1" points="60,-96 48,-96 48,0 60,0 					"/>
					<polygon class="st2" points="72,-96 60,-96 60,0 72,0 					"/>
					<polygon class="st1" points="84,-96 72,-96 72,0 84,0 					"/>
					<polygon class="st2" points="96,-96 84,-96 84,0 96,0 					"/>
					<polygon class="st1" points="108,-96 96,-96 96,0 108,0 					"/>
					<polygon class="st2" points="120,-96 108,-96 108,0 120,0 					"/>
					<polygon class="st1" points="132,-96 120,-96 120,0 132,0 					"/>
					<polygon class="st2" points="144,-96 132,-96 132,0 144,0 					"/>
					<polygon class="st1" points="156,-96 144,-96 144,0 156,0 					"/>
					<polygon class="st2" points="168,-96 156,-96 156,0 168,0 					"/>
					<polygon class="st1" points="180,-96 168,-96 168,0 180,0 					"/>
					<polygon class="st2" points="192,-96 180,-96 180,0 192,0 					"/>
				</g>
			</g>
		</g>
	</g>
</pattern>
<pattern  y="2064" width="192" height="96" patternUnits="userSpaceOnUse" id="SVGID_7_" viewBox="0 -96 192 96" style="overflow:visible;">
	<g>
		<rect y="-96" class="st0" width="192" height="96"/>
		<g>
			<rect y="-96" class="st0" width="192" height="96"/>
			<g>
				<polygon class="st0" points="0,0 192,0 192,-96 0,-96 				"/>
				<g>
					<polygon class="st0" points="0,-96 192,-96 192,0 0,0 					"/>
					<polygon class="st1" points="12,-96 0,-96 0,0 12,0 					"/>
					<polygon class="st2" points="24,-96 12,-96 12,0 24,0 					"/>
					<polygon class="st1" points="36,-96 24,-96 24,0 36,0 					"/>
					<polygon class="st2" points="48,-96 36,-96 36,0 48,0 					"/>
					<polygon class="st1" points="60,-96 48,-96 48,0 60,0 					"/>
					<polygon class="st2" points="72,-96 60,-96 60,0 72,0 					"/>
					<polygon class="st1" points="84,-96 72,-96 72,0 84,0 					"/>
					<polygon class="st2" points="96,-96 84,-96 84,0 96,0 					"/>
					<polygon class="st1" points="108,-96 96,-96 96,0 108,0 					"/>
					<polygon class="st2" points="120,-96 108,-96 108,0 120,0 					"/>
					<polygon class="st1" points="132,-96 120,-96 120,0 132,0 					"/>
					<polygon class="st2" points="144,-96 132,-96 132,0 144,0 					"/>
					<polygon class="st1" points="156,-96 144,-96 144,0 156,0 					"/>
					<polygon class="st2" points="168,-96 156,-96 156,0 168,0 					"/>
					<polygon class="st1" points="180,-96 168,-96 168,0 180,0 					"/>
					<polygon class="st2" points="192,-96 180,-96 180,0 192,0 					"/>
				</g>
			</g>
		</g>
	</g>
</pattern>
<pattern  y="2064" width="192" height="96" patternUnits="userSpaceOnUse" id="SVGID_8_" viewBox="0 -96 192 96" style="overflow:visible;">
	<g>
		<rect y="-96" class="st0" width="192" height="96"/>
		<g>
			<rect y="-96" class="st0" width="192" height="96"/>
			<g>
				<polygon class="st0" points="0,0 192,0 192,-96 0,-96 				"/>
				<g>
					<polygon class="st0" points="0,-96 192,-96 192,0 0,0 					"/>
					<polygon class="st1" points="12,-96 0,-96 0,0 12,0 					"/>
					<polygon class="st2" points="24,-96 12,-96 12,0 24,0 					"/>
					<polygon class="st1" points="36,-96 24,-96 24,0 36,0 					"/>
					<polygon class="st2" points="48,-96 36,-96 36,0 48,0 					"/>
					<polygon class="st1" points="60,-96 48,-96 48,0 60,0 					"/>
					<polygon class="st2" points="72,-96 60,-96 60,0 72,0 					"/>
					<polygon class="st1" points="84,-96 72,-96 72,0 84,0 					"/>
					<polygon class="st2" points="96,-96 84,-96 84,0 96,0 					"/>
					<polygon class="st1" points="108,-96 96,-96 96,0 108,0 					"/>
					<polygon class="st2" points="120,-96 108,-96 108,0 120,0 					"/>
					<polygon class="st1" points="132,-96 120,-96 120,0 132,0 					"/>
					<polygon class="st2" points="144,-96 132,-96 132,0 144,0 					"/>
					<polygon class="st1" points="156,-96 144,-96 144,0 156,0 					"/>
					<polygon class="st2" points="168,-96 156,-96 156,0 168,0 					"/>
					<polygon class="st1" points="180,-96 168,-96 168,0 180,0 					"/>
					<polygon class="st2" points="192,-96 180,-96 180,0 192,0 					"/>
				</g>
			</g>
		</g>
	</g>
</pattern>
<pattern  y="2064" width="192" height="96" patternUnits="userSpaceOnUse" id="SVGID_9_" viewBox="0 -96 192 96" style="overflow:visible;">
	<g>
		<rect y="-96" class="st0" width="192" height="96"/>
		<g>
			<rect y="-96" class="st0" width="192" height="96"/>
			<g>
				<polygon class="st0" points="0,0 192,0 192,-96 0,-96 				"/>
				<g>
					<polygon class="st0" points="0,-96 192,-96 192,0 0,0 					"/>
					<polygon class="st1" points="12,-96 0,-96 0,0 12,0 					"/>
					<polygon class="st2" points="24,-96 12,-96 12,0 24,0 					"/>
					<polygon class="st1" points="36,-96 24,-96 24,0 36,0 					"/>
					<polygon class="st2" points="48,-96 36,-96 36,0 48,0 					"/>
					<polygon class="st1" points="60,-96 48,-96 48,0 60,0 					"/>
					<polygon class="st2" points="72,-96 60,-96 60,0 72,0 					"/>
					<polygon class="st1" points="84,-96 72,-96 72,0 84,0 					"/>
					<polygon class="st2" points="96,-96 84,-96 84,0 96,0 					"/>
					<polygon class="st1" points="108,-96 96,-96 96,0 108,0 					"/>
					<polygon class="st2" points="120,-96 108,-96 108,0 120,0 					"/>
					<polygon class="st1" points="132,-96 120,-96 120,0 132,0 					"/>
					<polygon class="st2" points="144,-96 132,-96 132,0 144,0 					"/>
					<polygon class="st1" points="156,-96 144,-96 144,0 156,0 					"/>
					<polygon class="st2" points="168,-96 156,-96 156,0 168,0 					"/>
					<polygon class="st1" points="180,-96 168,-96 168,0 180,0 					"/>
					<polygon class="st2" points="192,-96 180,-96 180,0 192,0 					"/>
				</g>
			</g>
		</g>
	</g>
</pattern>
<g>
	<path class="st3" d="M286.9,426v-17v-17v-17v-17v-17v-14.6c0-0.9,0.1-1.7,0.2-2.5c0.2-1.3,0.4-2.6,0.8-3.8
		c5.9-18.6,35.8-30.1,40-49.2v-32h-192v32c4.2,19,34.1,30.6,40,49.2c0.4,1.2,0.7,2.5,0.8,3.8c0.1,0.8,0.2,1.7,0.2,2.5V341v17v17v17
		v17v17v4.5v0.5h110v-0.5V426L286.9,426z"/>
	<rect x="138.8" y="239" class="st1" width="3.3" height="26"/>
	<g>
		<path class="st1" d="M180.9,325c0-24-42-36-42-60l3-2c0,24,42,36,42,60L180.9,325z"/>
	</g>
	<rect x="180.9" y="323" class="st1" width="3" height="108"/>
	<rect x="321.8" y="239" class="st1" width="3.3" height="26"/>
	<g>
		<path class="st1" d="M282.9,325c0-24,42-36,42-60l-3-2c0,24-42,36-42,60L282.9,325z"/>
	</g>
	<rect x="279.9" y="323" class="st1" width="3" height="108"/>
	<rect x="135.9" y="239" class="st0" width="192" height="192"/>
</g>
<g>
	<rect x="1248.5" y="1192.2" class="st3" width="192" height="192"/>
	<rect x="1434.5" y="1192.2" class="st1" width="3" height="192"/>
	<rect x="1251.5" y="1192.2" class="st1" width="3" height="192"/>
</g>
<g>
	<g>
		<pattern  id="SVGID_12_" xlink:href="#SVGID_1_" patternTransform="matrix(0.7071 0.7155 0.7071 -0.7155 -7603.646 -25811.8887)">
		</pattern>
		<path class="st4" d="M122.4,257.3h10.8L199.6,126l131.3-66.4V48.8c-10.5-3.4-27.2-7.5-48-7.5c-35.8,0-83.5,12-119.4,48l0,0
			c-0.1,0.1-0.2,0.2-0.3,0.3c-0.1,0.1-0.2,0.2-0.3,0.3l0,0c-36,35.9-48,83.6-48,119.4C114.9,230.1,118.9,246.9,122.4,257.3z"/>
	</g>
	<g>
		<path class="st3" d="M330.9,233.3v-192c-119.3,0-216,96.7-216,216h192C306.9,244.1,317.6,233.3,330.9,233.3z"/>
		<path class="st1" d="M117.9,257.3h3c0-116,94-210,210-210v-3C213.3,44.3,117.9,139.7,117.9,257.3z"/>
		<path class="st1" d="M300.9,257.3h3c0-14.9,12.1-27,27-27v-3C314.3,227.3,300.9,240.8,300.9,257.3z"/>
	</g>
</g>
<g>
	<g>
		
			<pattern  id="SVGID_13_" xlink:href="#SVGID_2_" patternTransform="matrix(-1.0335 1.0214 1.0335 1.0214 -63717.3281 32674.7617)">
		</pattern>
		<path class="st5" d="M1450.3,1560.5h-15.5l-96,189.7l-189.7,96v15.5c15.1,4.9,39.3,10.8,69.3,10.8c51.7,0,120.6-17.4,172.5-69.3
			l0,0c0.1-0.1,0.3-0.3,0.4-0.4s0.3-0.3,0.4-0.4l0,0c52-51.9,69.3-120.8,69.3-172.5C1461,1599.9,1455.2,1575.7,1450.3,1560.5z"/>
	</g>
	<path class="st3" d="M1269,1560.5c0,66.3-53.7,120-120,120v192c172.3,0,312-139.7,312-312H1269z"/>
	<path class="st1" d="M1455,1560.5c0,169-137,306-306,306v3c170.7,0,309-138.3,309-309H1455z"/>
	<path class="st1" d="M1272,1560.5c0,67.9-55.1,123-123,123v3c69.6,0,126-56.4,126-126H1272z"/>
</g>
<g>
	<g>
		
			<pattern  id="SVGID_14_" xlink:href="#SVGID_3_" patternTransform="matrix(-1.0214 -1.0335 -1.0214 1.0335 -63134.4805 33993.6719)">
		</pattern>
		<path class="st6" d="M1125,534.3v15.5l189.7,96l96,189.7h15.5c4.9-15.1,10.8-39.3,10.8-69.3c0-51.7-17.4-120.6-69.3-172.5l0,0
			c-0.1-0.1-0.3-0.3-0.4-0.4c-0.1-0.1-0.3-0.3-0.4-0.4l0,0c-51.9-52-120.8-69.3-172.5-69.3C1164.4,523.5,1140.2,529.3,1125,534.3z"
			/>
	</g>
	<path class="st3" d="M1125,715.5c66.3,0,120,53.7,120,120h192c0-172.3-139.7-312-312-312V715.5z"/>
	<path class="st1" d="M1125,529.5c169,0,306,137,306,306h3c0-170.7-138.3-309-309-309V529.5z"/>
	<path class="st1" d="M1125,712.5c67.9,0,123,55.1,123,123h3c0-69.6-56.4-126-126-126V712.5z"/>
</g>
<g>
	<g>
		<pattern  id="SVGID_15_" xlink:href="#SVGID_4_" patternTransform="matrix(1.0214 1.0335 1.0214 -1.0335 2372.2578 -36865.6328)">
		</pattern>
		<path class="st7" d="M652.9,1203.5v15.5l189.7,96l96,189.7h15.5c4.9-15.1,10.8-39.3,10.8-69.3c0-51.7-17.4-120.6-69.3-172.5l0,0
			c-0.1-0.1-0.3-0.3-0.4-0.4c-0.1-0.1-0.3-0.3-0.4-0.4l0,0c-51.9-52-120.8-69.3-172.5-69.3C692.2,1192.7,668,1198.5,652.9,1203.5z"
			/>
	</g>
	<path class="st3" d="M652.9,1384.7c66.3,0,120,53.7,120,120h192c0-172.3-139.7-312-312-312V1384.7z"/>
	<path class="st1" d="M652.9,1198.7c169,0,306,137,306,306h3c0-170.7-138.3-309-309-309V1198.7z"/>
	<path class="st1" d="M652.9,1381.7c67.9,0,123,55.1,123,123h3c0-69.6-56.4-126-126-126V1381.7z"/>
</g>
<g>
	<g>
		
			<pattern  id="SVGID_16_" xlink:href="#SVGID_5_" patternTransform="matrix(1.0335 -1.0214 -1.0335 -1.0214 2311.0579 -36167.668)">
		</pattern>
		<path class="st8" d="M411.8,692.1l0.4-15.5L225,575.9l-91.2-192l-15.5-0.4c-5.3,15-11.8,39.1-12.5,69c-1.3,51.7,14.3,121,65,174.2
			l0,0c0.1,0.1,0.3,0.3,0.4,0.4c0.1,0.1,0.3,0.3,0.4,0.4l0,0c50.6,53.3,119,72.3,170.7,73.6C372.2,701.9,396.6,696.6,411.8,692.1z"
			/>
	</g>
	<path class="st3" d="M416.4,510.9c-66.3-1.7-118.6-56.7-117-123l-191.9-4.8c-4.3,172.3,131.8,315.4,304.1,319.7L416.4,510.9z"/>
	<path class="st1" d="M411.7,696.9c-168.9-4.2-302.5-144.6-298.3-313.6l-3-0.1C106.1,553.8,241,695.6,411.6,699.8L411.7,696.9z"/>
	<path class="st1" d="M416.3,513.9c-67.9-1.7-121.6-58.1-119.9-126l-3-0.1c-1.7,69.6,53.2,127.4,122.8,129.1L416.3,513.9z"/>
</g>
<g>
	<rect x="792" y="32.6" class="st3" width="288" height="192"/>
	<rect x="792" y="35.6" class="st1" width="288" height="3"/>
	<rect x="792" y="218.6" class="st1" width="288" height="3"/>
</g>
<g>
	<rect x="132" y="1782" class="st3" width="192" height="288"/>
	<rect x="318" y="1782" class="st1" width="3" height="288"/>
	<rect x="135" y="1782" class="st1" width="3" height="288"/>
</g>
<g>
	<rect x="1452.9" y="31.1" class="st3" width="192" height="192"/>
	<rect x="1452.9" y="34.1" class="st1" width="192" height="3"/>
	<rect x="1452.9" y="217.1" class="st1" width="192" height="3"/>
</g>
<g>
	<g>
		
			<pattern  id="SVGID_17_" xlink:href="#SVGID_6_" patternTransform="matrix(0.7155 -0.7071 -0.7155 -0.7071 -8039.2959 -25431.3184)">
		</pattern>
		<path class="st9" d="M131.3,1407.5h10.8l66.5-131.3l131.3-66.4V1199c-10.5-3.4-27.2-7.5-48-7.5c-35.8,0-83.5,12-119.4,48l0,0
			c-0.1,0.1-0.2,0.2-0.3,0.3c-0.1,0.1-0.2,0.2-0.3,0.3l0,0c-36,35.9-48,83.6-48,119.4C123.9,1380.3,127.9,1397.1,131.3,1407.5z"/>
	</g>
	<g>
		<path class="st3" d="M339.9,1383.5v-192c-119.3,0-216,96.7-216,216h192C315.9,1394.3,326.6,1383.5,339.9,1383.5z"/>
		<path class="st1" d="M126.9,1407.5h3c0-116,94-210,210-210v-3C222.2,1194.5,126.9,1289.9,126.9,1407.5z"/>
		<path class="st1" d="M309.9,1407.5h3c0-14.9,12.1-27,27-27v-3C323.3,1377.5,309.9,1391,309.9,1407.5z"/>
	</g>
</g>
<g>
	<g>
		
			<pattern  id="SVGID_18_" xlink:href="#SVGID_7_" patternTransform="matrix(-0.7071 -0.7155 -0.7071 0.7155 -53499.7344 22691.3965)">
		</pattern>
		<path class="st10" d="M993.7,1865.8V1855l-131.3-66.4L796,1657.3h-10.8c-3.4,10.5-7.5,27.2-7.5,48c0,35.8,12,83.5,48,119.4l0,0
			c0.1,0.1,0.2,0.2,0.3,0.3c0.1,0.1,0.2,0.2,0.3,0.3l0,0c35.9,36,83.6,48,119.4,48C966.4,1873.2,983.2,1869.2,993.7,1865.8z"/>
	</g>
	<g>
		<path class="st3" d="M969.7,1657.2h-192c0,119.3,96.7,216,216,216v-192C980.4,1681.2,969.7,1670.5,969.7,1657.2z"/>
		<path class="st1" d="M993.7,1870.2v-3c-116,0-210-94-210-210h-3C780.7,1774.9,876,1870.2,993.7,1870.2z"/>
		<path class="st1" d="M993.7,1687.2v-3c-14.9,0-27-12.1-27-27h-3C963.7,1673.8,977.1,1687.2,993.7,1687.2z"/>
	</g>
</g>
<g>
	<g>
		<rect x="1243.3" y="815.2" class="st3" width="192" height="192"/>
		<rect x="1246.1" y="815.2" class="st1" width="3.3" height="26"/>
		<rect x="1429.3" y="815.2" class="st1" width="3" height="192"/>
		<g>
			<path class="st1" d="M1288.3,901.2c0-24-42-36-42-60l3-2c0,24,42,36,42,60L1288.3,901.2z"/>
		</g>
		<rect x="1288.3" y="899.2" class="st1" width="3" height="108"/>
	</g>
	<g>
		<polygon class="st1" points="1246.7,955.3 1246.7,955.3 1243.3,951.9 1243.3,968.9 1281.6,1007.2 1284.8,1007.2 1284.8,993.4 		
			"/>
		<polygon class="st1" points="1264.6,1007.2 1243.3,985.8 1243.3,1002.8 1247.7,1007.2 		"/>
		<polygon class="st2" points="1243.3,1002.8 1243.3,1007.2 1247.7,1007.2 		"/>
		<polygon class="st2" points="1281.6,1007.2 1243.3,968.9 1243.3,985.8 1264.6,1007.2 		"/>
		<polygon class="st1" points="1255.2,946.9 1284.8,976.4 1284.8,959.5 1263.7,938.4 1243.3,918 1243.3,934.9 		"/>
		<polygon class="st1" points="1284.8,942.5 1284.8,925.5 1280.6,921.4 1243.3,884 1243.3,901 1272.1,929.9 		"/>
		<path class="st1" d="M1284.8,903.7c0-21.5-33.6-33.4-40.7-52.8l-0.8-0.8v17l41.5,41.5V903.7z"/>
		<polygon class="st2" points="1246.7,955.3 1284.8,993.4 1284.8,976.4 1255.2,946.9 1255.2,946.9 1243.3,934.9 1243.3,951.9 		"/>
		<polygon class="st2" points="1284.8,959.5 1284.8,942.5 1272.1,929.9 1243.3,901 1243.3,918 1263.7,938.4 		"/>
		<polygon class="st2" points="1284.8,925.5 1284.8,917.3 1284.8,908.5 1243.3,867 1243.3,884 1280.6,921.4 		"/>
		<path class="st2" d="M1243.3,848.2v1.9l0.8,0.8C1243.7,850,1243.5,849.1,1243.3,848.2z"/>
	</g>
</g>
<g>
	<rect x="129" y="1588" class="st3" width="192" height="192"/>
	<g>
		<rect x="131.9" y="1588" class="st1" width="3.3" height="26"/>
		<g>
			<path class="st1" d="M174,1674c0-24-42-36-42-60l3-2c0,24,42,36,42,60L174,1674z"/>
		</g>
		<rect x="174" y="1672" class="st1" width="3" height="108"/>
		<g>
			<path class="st1" d="M168,1670.7L168,1670.7l2.3,2.3c-0.2-1.3-0.4-2.6-0.8-3.8c-5.9-18.6-36.2-30.1-40.5-49.2v11.7L168,1670.7z"
				/>
			<polygon class="st1" points="151,1687.6 170.5,1707.1 170.5,1690.2 159.5,1679.2 159.5,1679.2 129,1648.7 129,1665.6 			"/>
			<polygon class="st1" points="170.5,1741.1 170.5,1724.1 142.5,1696.1 129,1682.6 129,1699.6 134,1704.6 			"/>
			<polygon class="st1" points="170.5,1758 129,1716.5 129,1733.5 170.5,1775 			"/>
			<polygon class="st1" points="129,1750.5 129,1767.5 141.5,1780 158.5,1780 			"/>
			<path class="st2" d="M159.5,1679.2l11,11v-14.6c0-0.9-0.1-1.7-0.2-2.5l-2.3-2.3l0,0l-39-39v17L159.5,1679.2L159.5,1679.2z"/>
			<polygon class="st2" points="170.5,1724.1 170.5,1707.1 151,1687.6 151,1687.6 129,1665.6 129,1682.6 142.5,1696.1 			"/>
			<polygon class="st2" points="170.5,1741.1 134,1704.6 129,1699.6 129,1716.5 170.5,1758 			"/>
			<polygon class="st2" points="170.5,1775 129,1733.5 129,1750.5 158.5,1780 170.5,1780 170.5,1779.5 			"/>
			<polygon class="st2" points="129,1780 141.5,1780 129,1767.5 			"/>
		</g>
	</g>
	<g>
		<rect x="314.9" y="1588" class="st1" width="3.3" height="26"/>
		<g>
			<path class="st1" d="M276,1674c0-24,42-36,42-60l-3-2c0,24-42,36-42,60L276,1674z"/>
		</g>
		<rect x="273" y="1672" class="st1" width="3" height="108"/>
		<g>
			<path class="st1" d="M282,1670.7L282,1670.7l-2.3,2.3c0.2-1.3,0.4-2.6,0.8-3.8c5.9-18.6,36.2-30.1,40.5-49.2v11.7L282,1670.7z"/>
			<polygon class="st1" points="299,1687.6 279.5,1707.1 279.5,1690.2 290.5,1679.2 290.5,1679.2 321,1648.7 321,1665.6 			"/>
			<polygon class="st1" points="279.5,1741.1 279.5,1724.1 307.5,1696.1 321,1682.6 321,1699.6 316,1704.6 			"/>
			<polygon class="st1" points="279.5,1758 321,1716.5 321,1733.5 279.5,1775 			"/>
			<polygon class="st1" points="321,1750.5 321,1767.5 308.5,1780 291.5,1780 			"/>
			<path class="st2" d="M290.5,1679.2l-11,11v-14.6c0-0.9,0.1-1.7,0.2-2.5l2.3-2.3l0,0l39-39v17L290.5,1679.2L290.5,1679.2z"/>
			<polygon class="st2" points="279.5,1724.1 279.5,1707.1 299,1687.6 299,1687.6 321,1665.6 321,1682.6 307.5,1696.1 			"/>
			<polygon class="st2" points="279.5,1741.1 316,1704.6 321,1699.6 321,1716.5 279.5,1758 			"/>
			<polygon class="st2" points="279.5,1775 321,1733.5 321,1750.5 291.5,1780 279.5,1780 279.5,1779.5 			"/>
			<polygon class="st2" points="321,1780 308.5,1780 321,1767.5 			"/>
		</g>
	</g>
</g>
<g>
	<rect x="122.7" y="1406.1" class="st3" width="192" height="192"/>
	<g>
		<g>
			<rect x="125.6" y="1572.1" class="st1" width="3.3" height="26"/>
			<g>
				<path class="st1" d="M167.7,1512.1c0,24-42,36-42,60l3,2c0-24,42-36,42-60L167.7,1512.1z"/>
			</g>
			<rect x="167.7" y="1406.1" class="st1" width="3" height="108"/>
		</g>
		<g>
			<polygon class="st1" points="122.7,1444.5 122.7,1461.4 164.2,1502.9 164.2,1486 127.8,1449.5 			"/>
			<polygon class="st1" points="144.7,1432.5 122.7,1410.5 122.7,1427.5 136.2,1441 164.2,1469 164.2,1452 			"/>
			<polygon class="st2" points="144.7,1432.5 144.7,1432.5 164.2,1452 164.2,1435.1 153.2,1424.1 153.2,1424.1 135.3,1406.1 
				122.7,1406.1 122.7,1410.5 			"/>
			<polygon class="st2" points="122.7,1427.5 122.7,1444.5 127.8,1449.5 164.2,1486 164.2,1469 136.2,1441 			"/>
			<polygon class="st1" points="153.2,1424.1 164.2,1435.1 164.2,1418.1 161.7,1415.6 161.7,1415.6 152.2,1406.1 135.3,1406.1 			
				"/>
			<path class="st1" d="M122.7,1495.4l32.8,32.8c2.9-3.2,5.3-6.5,6.9-10.1l-39.7-39.7V1495.4z"/>
			<path class="st1" d="M122.7,1529.3l15,15c3-2.6,6.1-5.2,9.1-7.9l-24.1-24.1C122.7,1512.3,122.7,1529.3,122.7,1529.3z"/>
			<path class="st1" d="M122.7,1563.3l0.4,0.4c1.2-3.9,3.4-7.4,6.2-10.8l-6.6-6.6C122.7,1546.3,122.7,1563.3,122.7,1563.3z"/>
			<polygon class="st2" points="161.7,1415.6 164.2,1418.1 164.2,1413.1 164.2,1406.1 152.2,1406.1 			"/>
			<path class="st2" d="M122.7,1478.4l39.7,39.7c1.1-2.7,1.8-5.5,1.8-8.5v-6.7l-41.5-41.5V1478.4z"/>
			<path class="st2" d="M122.7,1512.4l24.1,24.1c3.1-2.7,6.1-5.4,8.7-8.3l-32.8-32.8V1512.4z"/>
			<path class="st2" d="M122.7,1546.3l6.6,6.6c2.5-2.9,5.4-5.8,8.5-8.5l-15-15v16.9H122.7z"/>
			<path class="st2" d="M122.7,1563.3v1.9c0.1-0.5,0.3-1,0.4-1.5L122.7,1563.3z"/>
		</g>
	</g>
	<g>
		<g>
			<rect x="308.6" y="1572.1" class="st1" width="3.3" height="26"/>
			<g>
				<path class="st1" d="M269.7,1512.1c0,24,42,36,42,60l-3,2c0-24-42-36-42-60L269.7,1512.1z"/>
			</g>
			<rect x="266.7" y="1406.1" class="st1" width="3" height="108"/>
		</g>
		<g>
			<polygon class="st1" points="314.7,1444.5 314.7,1461.4 273.2,1502.9 273.2,1486 309.7,1449.5 			"/>
			<polygon class="st1" points="292.7,1432.5 314.7,1410.5 314.7,1427.5 301.2,1441 273.2,1469 273.2,1452 			"/>
			<polygon class="st2" points="292.7,1432.5 292.7,1432.5 273.2,1452 273.2,1435.1 284.2,1424.1 284.2,1424.1 302.2,1406.1 
				314.7,1406.1 314.7,1410.5 			"/>
			<polygon class="st2" points="314.7,1427.5 314.7,1444.5 309.7,1449.5 273.2,1486 273.2,1469 301.2,1441 			"/>
			<polygon class="st1" points="284.2,1424.1 273.2,1435.1 273.2,1418.1 275.7,1415.6 275.7,1415.6 285.2,1406.1 302.2,1406.1 			
				"/>
			<path class="st1" d="M314.7,1495.4l-32.8,32.8c-2.9-3.2-5.3-6.5-6.9-10.1l39.7-39.7V1495.4L314.7,1495.4z"/>
			<path class="st1" d="M314.7,1529.3l-15,15c-3-2.6-6.1-5.2-9.1-7.9l24.1-24.1V1529.3z"/>
			<path class="st1" d="M314.7,1563.3l-0.4,0.4c-1.2-3.9-3.4-7.4-6.2-10.8l6.6-6.6V1563.3z"/>
			<polygon class="st2" points="275.7,1415.6 273.2,1418.1 273.2,1413.1 273.2,1406.1 285.2,1406.1 			"/>
			<path class="st2" d="M314.7,1478.4l-39.7,39.7c-1.1-2.7-1.8-5.5-1.8-8.5v-6.7l41.5-41.5V1478.4z"/>
			<path class="st2" d="M314.7,1512.4l-24.1,24.1c-3.1-2.7-6.1-5.4-8.7-8.3l32.8-32.8L314.7,1512.4L314.7,1512.4z"/>
			<path class="st2" d="M314.7,1546.3l-6.6,6.6c-2.5-2.9-5.4-5.8-8.5-8.5l15-15v16.9H314.7z"/>
			<path class="st2" d="M314.7,1563.3v1.9c-0.1-0.5-0.3-1-0.4-1.5L314.7,1563.3z"/>
		</g>
	</g>
</g>
<g>
	<g>
		<path class="st0" d="M623.7,425.8v1.8c-7.2-1.1-15.2-1.8-24-1.8H623.7z"/>
		<path class="st0" d="M480.2,473.8c-0.1,0.1-0.2,0.2-0.3,0.3c-0.1,0.1-0.2,0.2-0.3,0.3l0,0c-16.8,16.8-28.4,36.2-36,55.8V425.8h156
			C563.9,425.8,516.2,437.8,480.2,473.8L480.2,473.8z"/>
		<polygon class="st0" points="516.3,510.5 623.7,456.2 623.7,593.8 474.2,593.8 		"/>
		<g>
			
				<pattern  id="SVGID_19_" xlink:href="#SVGID_8_" patternTransform="matrix(-0.7155 -0.7071 0.7155 -0.7071 -52670.9141 -25448.4941)">
			</pattern>
			<path class="st11" d="M474.2,593.8h-30.5v-63.7c7.6-19.5,19.2-38.9,36-55.8l0,0c0.1-0.1,0.2-0.2,0.3-0.3c0.1-0.1,0.2-0.2,0.3-0.3
				l0,0c35.9-36,83.6-48,119.4-48c8.8,0,16.8,0.7,24,1.8V456l-107.3,54.3L474.2,593.8z"/>
		</g>
	</g>
	<g>
		<path class="st0" d="M623.7,809.8V808c-7.2,1.1-15.2,1.8-24,1.8H623.7z"/>
		<path class="st0" d="M480.2,761.8c-0.1-0.1-0.2-0.2-0.3-0.3c-0.1-0.1-0.2-0.2-0.3-0.3l0,0c-16.8-16.8-28.4-36.2-36-55.8v104.3h156
			C563.9,809.8,516.2,797.8,480.2,761.8L480.2,761.8z"/>
		<polygon class="st0" points="516.3,725.1 623.7,779.5 623.7,641.8 474.2,641.8 		"/>
		<g>
			
				<pattern  id="SVGID_20_" xlink:href="#SVGID_9_" patternTransform="matrix(0.7155 -0.7071 -0.7155 -0.7071 -8207.7031 -25516.377)">
			</pattern>
			<path class="st12" d="M474.2,641.8h-30.5v63.7c7.6,19.5,19.2,38.9,36,55.8l0,0c0.1,0.1,0.2,0.2,0.3,0.3c0.1,0.1,0.2,0.2,0.3,0.3
				l0,0c35.9,36,83.6,48,119.4,48c8.8,0,16.8-0.7,24-1.8v-28.5l-107.3-54.3L474.2,641.8z"/>
		</g>
	</g>
	<g>
		<path class="st3" d="M419.7,521.8v192c92.7,0,92.7,108,204,108v-192l0,0c-6.6,0-12-5.4-12-12s5.4-12,12-12l0,0v-192
			C512.4,413.8,512.4,521.8,419.7,521.8z"/>
		<path class="st1" d="M623.7,815.8v3c-58.8,0-85.1-30.6-112-59.2c-24.1-25.6-48.4-48.8-92-48.8v-3c44.9,0,69.4,23.7,94,49.8
			C540.1,785.7,566.1,815.8,623.7,815.8L623.7,815.8z"/>
		<path class="st1" d="M623.7,419.8v-3c-58.8,0-85.1,30.6-112,59.2c-24.1,25.6-48.4,48.8-92,48.8v3c44.9,0,69.4-23.7,94-49.8
			C540.1,449.9,566.1,419.8,623.7,419.8L623.7,419.8z"/>
	</g>
	<path class="st1" d="M608.7,617.8c0-8.3,6.7-15,15-15v-3c-9.9,0-18,8.1-18,18s8.1,18,18,18v-3C615.4,632.8,608.7,626.1,608.7,617.8
		z"/>
</g>
<g>
	<rect x="1267.8" y="1383.4" class="st3" width="192" height="192"/>
	<rect x="1270.7" y="1383.4" class="st1" width="3.3" height="26"/>
	<g>
		<path class="st1" d="M1312.8,1469.4c0-24-42-36-42-60l3-2c0,24,42,36,42,60L1312.8,1469.4z"/>
	</g>
	<rect x="1312.8" y="1467.4" class="st1" width="3" height="108"/>
	<path class="st1" d="M1308.6,1468.4c-0.2-1.3-0.4-2.6-0.8-3.8c-5.9-18.6-35.8-30.1-40-49.2v11.7v17v17v17v17v17v17v17v17v12.5h12.4
		h16.8h11.8v-0.5v-4.5v-17v-17v-17v-17v-17V1471C1308.8,1470.1,1308.7,1469.2,1308.6,1468.4z"/>
	<rect x="1453.7" y="1383.4" class="st1" width="3.3" height="26"/>
	<g>
		<path class="st1" d="M1414.8,1469.4c0-24,42-36,42-60l-3-2c0,24-42,36-42,60L1414.8,1469.4z"/>
	</g>
	<rect x="1411.8" y="1467.4" class="st1" width="3" height="108"/>
	<path class="st1" d="M1419.8,1464.6c-0.4,1.2-0.7,2.5-0.8,3.8c-0.1,0.8-0.2,1.7-0.2,2.5v14.6v17v17v17v17v17v4.5v0.5h11.8h16.8
		h12.4V1563v-17v-17v-17v-17v-17v-17v-17v-17v-11.7C1455.6,1434.4,1425.6,1446,1419.8,1464.6z"/>
</g>
<g>
	<rect x="777" y="521.8" class="st3" width="192" height="192"/>
	<g>
		<rect x="943" y="707.7" class="st1" width="26" height="3.3"/>
		<g>
			<path class="st1" d="M883,668.8c24,0,36,42,60,42l2-3c-24,0-36-42-60-42L883,668.8z"/>
		</g>
		<rect x="777" y="665.8" class="st1" width="108" height="3"/>
	</g>
	<path class="st1" d="M777,684.6v16.8v12.4h4.4h17h17h17h17h17h17h17h17h17h1.9c-0.5-0.1-1-0.3-1.5-0.4c-3.9-1.1-7.4-3.3-10.8-6.1
		c-2.9-2.4-5.8-5.3-8.5-8.4c-2.6-2.9-5.2-6-7.9-9c-2.7-3.1-5.4-6-8.3-8.6c-3.2-2.9-6.5-5.3-10.1-6.8c-2.7-1.1-5.5-1.8-8.5-1.8H874
		h-17h-17h-17h-17h-17h-5h-7L777,684.6L777,684.6z"/>
	<path class="st1" d="M883,566.8H777v3h108c23.3,0,35.3-39.7,58-41.9l0,0h26v-3.3h-26v0.1C919,524.8,907,566.8,883,566.8z"/>
	<path class="st1" d="M777,534.2V551v11.8h7h5h17h17h17h17h17h6.7c3,0,5.8-0.7,8.5-1.8c3.6-1.5,6.9-3.9,10.1-6.8
		c2.8-2.6,5.6-5.5,8.3-8.6c2.6-3,5.2-6.1,7.9-9c2.8-3.1,5.6-5.9,8.5-8.4c3.4-2.8,6.9-5,10.8-6.1c0.5-0.1,1-0.3,1.5-0.4h-1.9h-17h-17
		h-17h-17h-17h-17h-17h-17h-17H777V534.2z"/>
</g>
<g>
	
		<rect x="1255.5" y="1003.1" transform="matrix(2.597537e-02 -0.9997 0.9997 2.597537e-02 217.6868 2421.6194)" class="st3" width="192" height="192"/>
	<g>
		<polygon class="st1" points="1300.2,1109.8 1298.2,1187.8 1301.2,1187.9 1303.2,1109.9 1303.8,1085.9 1306,1001.9 1303,1001.8 
			1300.8,1085.8 		"/>
		
			<rect x="1296.6" y="1189.3" transform="matrix(2.597537e-02 -0.9997 0.9997 2.597537e-02 75.5008 2459.0632)" class="st1" width="6" height="3"/>
		<polygon class="st1" points="1402.8,1088.5 1405,1004.5 1402,1004.4 1399.8,1088.4 1399.2,1112.4 1397,1196.3 1400,1196.4 
			1402.2,1112.5 		"/>
	</g>
	
		<rect x="1180.1" y="1076.7" transform="matrix(2.597537e-02 -0.9997 0.9997 2.597537e-02 146.1624 2344.3496)" class="st1" width="192" height="41"/>
	
		<rect x="1331" y="1080.5" transform="matrix(2.597537e-02 -0.9997 0.9997 2.597537e-02 289.306 2498.9917)" class="st1" width="192" height="41"/>
</g>
<g>
	<rect x="619.9" y="538.5" class="st3" width="192" height="192"/>
	<g>
		<polygon class="st1" points="703.9,583.5 625.9,583.5 625.9,586.5 703.9,586.5 727.9,586.5 811.9,586.5 811.9,583.5 727.9,583.5 
					"/>
		<rect x="619.9" y="583.5" class="st1" width="6" height="3"/>
		<polygon class="st1" points="727.9,685.5 811.9,685.5 811.9,682.5 727.9,682.5 703.9,682.5 619.9,682.5 619.9,685.5 703.9,685.5 
					"/>
	</g>
	<rect x="619.9" y="538.5" class="st1" width="192" height="41"/>
	<rect x="619.9" y="689.5" class="st1" width="192" height="41"/>
</g>
<g>
	<g>
		<path class="st0" d="M1282.1-64.9v1.8c-7.2-1.1-15.2-1.8-24-1.8H1282.1z"/>
		<path class="st0" d="M1138.6-16.9c-0.1,0.1-0.2,0.2-0.3,0.3c-0.1,0.1-0.2,0.2-0.3,0.3l0,0c-16.8,16.8-28.4,36.2-36,55.8V-64.9h156
			C1222.3-64.9,1174.6-52.9,1138.6-16.9L1138.6-16.9z"/>
		<polygon class="st0" points="1174.7,19.7 1282.1,-34.6 1282.1,103.1 1132.6,103.1 		"/>
		<g>
			
				<pattern  id="SVGID_21_" xlink:href="#SVGID_10_" patternTransform="matrix(-0.7071 0.7155 -0.7071 -0.7155 -52988.2148 -25754.3672)">
			</pattern>
			<path class="st13" d="M1132.6,103.1h-30.5V39.4c7.6-19.5,19.2-38.9,36-55.8l0,0c0.1-0.1,0.2-0.2,0.3-0.3c0.1-0.1,0.2-0.2,0.3-0.3
				l0,0c35.9-36,83.6-48,119.4-48c8.8,0,16.8,0.7,24,1.8v28.5l-107.3,54.3L1132.6,103.1z"/>
		</g>
	</g>
	<g>
		<path class="st0" d="M1282.1,319.1v-1.8c-7.2,1.1-15.2,1.8-24,1.8H1282.1z"/>
		<path class="st0" d="M1138.6,271.1c-0.1-0.1-0.2-0.2-0.3-0.3c-0.1-0.1-0.2-0.2-0.3-0.3l0,0c-16.8-16.8-28.4-36.2-36-55.8V319h156
			C1222.3,319.1,1174.6,307.1,1138.6,271.1L1138.6,271.1z"/>
		<polygon class="st0" points="1174.7,234.4 1282.1,288.7 1282.1,151.1 1132.6,151.1 		"/>
		<g>
			
				<pattern  id="SVGID_22_" xlink:href="#SVGID_11_" patternTransform="matrix(-0.7071 -0.7155 -0.7071 0.7155 -52988.2031 22259.4023)">
			</pattern>
			<path class="st14" d="M1132.6,151.1h-30.5v63.7c7.6,19.5,19.2,38.9,36,55.8l0,0c0.1,0.1,0.2,0.2,0.3,0.3c0.1,0.1,0.2,0.2,0.3,0.3
				l0,0c35.9,36,83.6,48,119.4,48c8.8,0,16.8-0.7,24-1.8v-28.5l-107.3-54.3L1132.6,151.1z"/>
		</g>
	</g>
	<g>
		<path class="st3" d="M1078.1,31.1v192c92.7,0,92.7,108,204,108v-192l0,0c-6.6,0-12-5.4-12-12c0-6.6,5.4-12,12-12l0,0v-192
			C1170.8-76.9,1170.8,31.1,1078.1,31.1z"/>
		<path class="st1" d="M1282.1,325.1v3c-58.8,0-85.1-30.6-112-59.2c-24.1-25.6-48.4-48.8-92-48.8v-3c44.9,0,69.4,23.7,94,49.8
			C1198.5,295,1224.6,325.1,1282.1,325.1L1282.1,325.1z"/>
		<path class="st1" d="M1282.1-70.9v-3c-58.8,0-85.1,30.6-112,59.2c-24.1,25.6-48.4,48.8-92,48.8v3c44.9,0,69.4-23.7,94-49.8
			C1198.5-40.8,1224.6-70.9,1282.1-70.9L1282.1-70.9z"/>
	</g>
	<path class="st1" d="M1267.1,127.1c0-8.3,6.7-15,15-15v-3c-9.9,0-18,8.1-18,18s8.1,18,18,18v-3
		C1273.8,142.1,1267.1,135.4,1267.1,127.1z"/>
</g>
<g>
	<g>
		<rect x="974.2" y="1686" class="st3" width="192" height="192"/>
		<rect x="1140.2" y="1871.9" class="st1" width="26" height="3.3"/>
		<rect x="974.2" y="1689" class="st1" width="192" height="3"/>
		<g>
			<path class="st1" d="M1080.2,1833c24,0,36,42,60,42l2-3c-24,0-36-42-60-42L1080.2,1833z"/>
		</g>
		<rect x="974.2" y="1830" class="st1" width="108" height="3"/>
	</g>
	<g>
		<path class="st1" d="M1134.2,1878c-2.9-0.6-5.6-1.9-8.1-3.5l-3.5,3.5H1134.2z"/>
		<path class="st2" d="M1122.5,1878l3.5-3.5c-3.2-2.1-6.2-4.8-9.2-7.8l-11.3,11.3H1122.5z"/>
		<g>
			<polygon class="st1" points="977.3,1836.5 974.7,1836.5 974.2,1836.5 974.2,1839.6 			"/>
			<polygon class="st1" points="974.2,1873.6 1007.2,1840.6 1011.3,1836.5 1003.1,1836.5 994.3,1836.5 974.2,1856.6 			"/>
			<polygon class="st2" points="974.2,1873.6 974.2,1878 986.8,1878 1015.7,1849.1 1028.3,1836.5 1011.3,1836.5 1007.2,1840.6 			
				"/>
			<polygon class="st2" points="974.2,1856.6 994.3,1836.5 977.3,1836.5 974.2,1839.6 			"/>
			<path class="st1" d="M1105.6,1878l11.3-11.3c-2.7-2.8-5.4-5.9-8-9l-20.3,20.3H1105.6z"/>
			<path class="st1" d="M1071.6,1878l29.3-29.3c-2.9-3-5.9-5.8-9.1-7.9l-37.2,37.2L1071.6,1878L1071.6,1878z"/>
			<path class="st1" d="M1032.6,1866.1l-11.9,11.9h17l3.4-3.4l0,0l38-38c-0.2,0-0.3,0-0.5,0h-16.5L1032.6,1866.1L1032.6,1866.1z"/>
			<polygon class="st1" points="986.8,1878 1003.7,1878 1024.1,1857.6 1045.2,1836.5 1028.3,1836.5 1015.7,1849.1 			"/>
			<path class="st2" d="M1088.6,1878l20.3-20.3c-2.6-3.1-5.3-6.2-8-9l-29.3,29.3H1088.6z"/>
			<path class="st2" d="M1041.1,1874.6l-3.4,3.4h17l37.2-37.2c-3.9-2.6-8-4.2-12.6-4.3L1041.1,1874.6L1041.1,1874.6z"/>
			<polygon class="st2" points="1003.7,1878 1020.7,1878 1032.6,1866.1 1032.6,1866.1 1062.2,1836.5 1045.2,1836.5 1024.1,1857.6 
							"/>
		</g>
	</g>
</g>
<g>
	<rect x="481.9" y="1192.2" class="st3" width="192" height="192"/>
	<g>
		<rect x="481.9" y="1378.1" class="st1" width="26" height="3.3"/>
		<g>
			<path class="st1" d="M567.9,1339.2c-24,0-36,42-60,42l-2-3c24,0,36-42,60-42L567.9,1339.2z"/>
		</g>
		<rect x="565.9" y="1336.2" class="st1" width="108" height="3"/>
		<g>
			<path class="st1" d="M564.6,1345.2L564.6,1345.2l2.3-2.3c-1.3,0.2-2.6,0.4-3.8,0.8c-18.6,5.9-30.1,36.2-49.2,40.5h11.7
				L564.6,1345.2z"/>
			<polygon class="st1" points="581.6,1362.2 601.1,1342.7 584.1,1342.7 573.1,1353.7 573.1,1353.7 542.6,1384.2 559.6,1384.2 			
				"/>
			<polygon class="st1" points="635,1342.7 618,1342.7 590.1,1370.7 576.5,1384.2 593.5,1384.2 598.6,1379.2 			"/>
			<polygon class="st1" points="652,1342.7 610.5,1384.2 627.5,1384.2 669,1342.7 			"/>
			<polygon class="st1" points="644.4,1384.2 661.4,1384.2 673.9,1371.7 673.9,1354.7 			"/>
			<path class="st2" d="M573.1,1353.7l11-11h-14.6c-0.9,0-1.7,0.1-2.5,0.2l-2.3,2.3l0,0l-39,39h17L573.1,1353.7L573.1,1353.7z"/>
			<polygon class="st2" points="618,1342.7 601.1,1342.7 581.6,1362.2 581.6,1362.2 559.6,1384.2 576.5,1384.2 590.1,1370.7 			"/>
			<polygon class="st2" points="635,1342.7 598.6,1379.2 593.5,1384.2 610.5,1384.2 652,1342.7 			"/>
			<polygon class="st2" points="669,1342.7 627.5,1384.2 644.4,1384.2 673.9,1354.7 673.9,1342.7 673.5,1342.7 			"/>
			<polygon class="st2" points="673.9,1384.2 673.9,1371.7 661.4,1384.2 			"/>
		</g>
	</g>
	<g>
		<rect x="481.9" y="1195.1" class="st1" width="26" height="3.3"/>
		<g>
			<path class="st1" d="M567.9,1237.2c-24,0-36-42-60-42l-2,3c24,0,36,42,60,42L567.9,1237.2z"/>
		</g>
		<rect x="565.9" y="1237.2" class="st1" width="108" height="3"/>
		<g>
			<path class="st1" d="M564.6,1231.2L564.6,1231.2l2.3,2.3c-1.3-0.2-2.6-0.4-3.8-0.8c-18.6-5.9-30.1-36.2-49.2-40.5h11.7
				L564.6,1231.2z"/>
			<polygon class="st1" points="581.6,1214.2 601.1,1233.7 584.1,1233.7 573.1,1222.7 573.1,1222.7 542.6,1192.2 559.6,1192.2 			
				"/>
			<polygon class="st1" points="635,1233.7 618,1233.7 590.1,1205.8 576.5,1192.2 593.5,1192.2 598.6,1197.3 			"/>
			<polygon class="st1" points="652,1233.7 610.5,1192.2 627.5,1192.2 669,1233.7 			"/>
			<polygon class="st1" points="644.4,1192.2 661.4,1192.2 673.9,1204.8 673.9,1221.7 			"/>
			<path class="st2" d="M573.1,1222.7l11,11h-14.6c-0.9,0-1.7-0.1-2.5-0.2l-2.3-2.3l0,0l-39-39h17L573.1,1222.7L573.1,1222.7z"/>
			<polygon class="st2" points="618,1233.7 601.1,1233.7 581.6,1214.2 581.6,1214.2 559.6,1192.2 576.5,1192.2 590.1,1205.8 			"/>
			<polygon class="st2" points="635,1233.7 598.6,1197.3 593.5,1192.2 610.5,1192.2 652,1233.7 			"/>
			<polygon class="st2" points="669,1233.7 627.5,1192.2 644.4,1192.2 673.9,1221.7 673.9,1233.7 673.5,1233.7 			"/>
			<polygon class="st2" points="673.9,1192.2 673.9,1204.8 661.4,1192.2 			"/>
		</g>
	</g>
</g>
<g>
	<rect x="309.7" y="1192.2" class="st3" width="192" height="192"/>
	<g>
		<g>
			<rect x="475.7" y="1378.1" class="st1" width="26" height="3.3"/>
			<g>
				<path class="st1" d="M415.7,1339.2c24,0,36,42,60,42l2-3c-24,0-36-42-60-42L415.7,1339.2z"/>
			</g>
			<rect x="309.7" y="1336.2" class="st1" width="108" height="3"/>
		</g>
		<g>
			<polygon class="st1" points="348.1,1384.2 365.1,1384.2 406.6,1342.7 389.6,1342.7 353.1,1379.2 			"/>
			<polygon class="st1" points="336.2,1362.2 314.2,1384.2 331.1,1384.2 344.7,1370.7 372.6,1342.7 355.7,1342.7 			"/>
			<polygon class="st2" points="336.2,1362.2 336.2,1362.2 355.7,1342.7 338.7,1342.7 327.7,1353.7 327.7,1353.7 309.7,1371.7 
				309.7,1384.2 314.2,1384.2 			"/>
			<polygon class="st2" points="331.1,1384.2 348.1,1384.2 353.1,1379.2 389.6,1342.7 372.6,1342.7 344.7,1370.7 			"/>
			<polygon class="st1" points="327.7,1353.7 338.7,1342.7 321.7,1342.7 319.2,1345.2 319.2,1345.2 309.7,1354.7 309.7,1371.7 			
				"/>
			<path class="st1" d="M399,1384.2l32.8-32.8c-3.2-2.9-6.5-5.3-10.1-6.9l-39.7,39.7L399,1384.2L399,1384.2z"/>
			<path class="st1" d="M432.9,1384.2l15-15c-2.6-3-5.2-6.1-7.9-9.1l-24.1,24.1H432.9z"/>
			<path class="st1" d="M466.9,1384.2l0.4-0.4c-3.9-1.2-7.4-3.4-10.8-6.2l-6.6,6.6H466.9L466.9,1384.2z"/>
			<polygon class="st2" points="319.2,1345.2 321.7,1342.7 316.7,1342.7 309.7,1342.7 309.7,1354.7 			"/>
			<path class="st2" d="M382,1384.2l39.7-39.7c-2.7-1.1-5.5-1.8-8.5-1.8h-6.7l-41.5,41.5H382z"/>
			<path class="st2" d="M416,1384.2l24.1-24.1c-2.7-3.1-5.4-6.1-8.3-8.7l-32.8,32.8L416,1384.2L416,1384.2z"/>
			<path class="st2" d="M449.9,1384.2l6.6-6.6c-2.9-2.5-5.8-5.4-8.5-8.5l-15,15L449.9,1384.2L449.9,1384.2z"/>
			<path class="st2" d="M466.9,1384.2h1.9c-0.5-0.1-1-0.3-1.5-0.4L466.9,1384.2z"/>
		</g>
	</g>
	<g>
		<g>
			<rect x="475.7" y="1195.1" class="st1" width="26" height="3.3"/>
			<g>
				<path class="st1" d="M415.7,1237.2c24,0,36-42,60-42l2,3c-24,0-36,42-60,42L415.7,1237.2z"/>
			</g>
			<rect x="309.7" y="1237.2" class="st1" width="108" height="3"/>
		</g>
		<g>
			<polygon class="st1" points="348.1,1192.2 365.1,1192.2 406.6,1233.7 389.6,1233.7 353.1,1197.3 			"/>
			<polygon class="st1" points="336.2,1214.2 314.2,1192.2 331.1,1192.2 344.7,1205.8 372.6,1233.7 355.7,1233.7 			"/>
			<polygon class="st2" points="336.2,1214.2 336.2,1214.2 355.7,1233.7 338.7,1233.7 327.7,1222.7 327.7,1222.7 309.7,1204.8 
				309.7,1192.2 314.2,1192.2 			"/>
			<polygon class="st2" points="331.1,1192.2 348.1,1192.2 353.1,1197.3 389.6,1233.7 372.6,1233.7 344.7,1205.8 			"/>
			<polygon class="st1" points="327.7,1222.7 338.7,1233.7 321.7,1233.7 319.2,1231.2 319.2,1231.2 309.7,1221.7 309.7,1204.8 			
				"/>
			<path class="st1" d="M399,1192.2l32.8,32.8c-3.2,2.9-6.5,5.3-10.1,6.9l-39.7-39.7L399,1192.2L399,1192.2z"/>
			<path class="st1" d="M432.9,1192.2l15,15c-2.6,3-5.2,6.1-7.9,9.1l-24.1-24.1H432.9z"/>
			<path class="st1" d="M466.9,1192.2l0.4,0.4c-3.9,1.2-7.4,3.4-10.8,6.2l-6.6-6.6H466.9L466.9,1192.2z"/>
			<polygon class="st2" points="319.2,1231.2 321.7,1233.7 316.7,1233.7 309.7,1233.7 309.7,1221.7 			"/>
			<path class="st2" d="M382,1192.2l39.7,39.7c-2.7,1.1-5.5,1.8-8.5,1.8h-6.7l-41.5-41.5H382z"/>
			<path class="st2" d="M416,1192.2l24.1,24.1c-2.7,3.1-5.4,6.1-8.3,8.7l-32.8-32.8L416,1192.2L416,1192.2z"/>
			<path class="st2" d="M449.9,1192.2l6.6,6.6c-2.9,2.5-5.8,5.4-8.5,8.5l-15-15L449.9,1192.2L449.9,1192.2z"/>
			<path class="st2" d="M466.9,1192.2h1.9c-0.5,0.1-1,0.3-1.5,0.4L466.9,1192.2z"/>
		</g>
	</g>
</g>
<g>
	<g>
		<rect x="966.2" y="538.5" class="st3" width="192" height="192"/>
		<rect x="966.2" y="541.4" class="st1" width="26" height="3.3"/>
		<rect x="966.2" y="724.5" class="st1" width="192" height="3"/>
		<g>
			<path class="st1" d="M1052.2,583.5c-24,0-36-42-60-42l-2,3c24,0,36,42,60,42L1052.2,583.5z"/>
		</g>
		<rect x="1050.2" y="583.5" class="st1" width="108" height="3"/>
	</g>
	<g>
		<path class="st1" d="M998.2,538.5c2.9,0.6,5.6,1.9,8.1,3.5l3.5-3.5H998.2z"/>
		<path class="st2" d="M1009.9,538.5l-3.5,3.5c3.2,2.1,6.2,4.8,9.2,7.8l11.3-11.3H1009.9z"/>
		<g>
			<polygon class="st1" points="1155.1,580 1157.7,580 1158.2,580 1158.2,576.9 			"/>
			<polygon class="st1" points="1158.2,542.9 1125.2,575.9 1121.1,580 1129.4,580 1138.1,580 1158.2,559.9 			"/>
			<polygon class="st2" points="1158.2,542.9 1158.2,538.5 1145.7,538.5 1116.8,567.4 1104.2,580 1121.1,580 1125.2,575.9 			"/>
			<polygon class="st2" points="1158.2,559.9 1138.1,580 1155.1,580 1158.2,576.9 			"/>
			<path class="st1" d="M1026.9,538.5l-11.3,11.3c2.7,2.8,5.4,5.9,8,9l20.3-20.3H1026.9z"/>
			<path class="st1" d="M1060.8,538.5l-29.3,29.3c2.9,3,5.9,5.8,9.1,7.9l37.2-37.2H1060.8z"/>
			<path class="st1" d="M1099.8,550.4l11.9-11.9h-17l-3.4,3.4l0,0l-38,38c0.2,0,0.3,0,0.5,0h16.5L1099.8,550.4L1099.8,550.4
				L1099.8,550.4z"/>
			<polygon class="st1" points="1145.7,538.5 1128.7,538.5 1108.3,558.9 1087.2,580 1104.2,580 1116.8,567.4 			"/>
			<path class="st2" d="M1043.8,538.5l-20.3,20.3c2.6,3.1,5.3,6.2,8,9l29.3-29.3H1043.8z"/>
			<path class="st2" d="M1091.3,541.9l3.4-3.4h-17l-37.2,37.2c3.9,2.6,8,4.2,12.6,4.3L1091.3,541.9L1091.3,541.9z"/>
			<polygon class="st2" points="1128.7,538.5 1111.7,538.5 1099.8,550.4 1099.8,550.4 1070.2,580 1087.2,580 1108.3,558.9 			"/>
		</g>
	</g>
</g>
<g>
	<g>
		<rect x="427.7" y="31.1" class="st3" width="192" height="192"/>
		<rect x="593.7" y="34" class="st1" width="26" height="3.3"/>
		<rect x="427.7" y="217.1" class="st1" width="192" height="3"/>
		<g>
			<path class="st1" d="M533.7,76.1c24,0,36-42,60-42l2,3c-24,0-36,42-60,42L533.7,76.1z"/>
		</g>
		<rect x="427.7" y="76.1" class="st1" width="108" height="3"/>
	</g>
	<g>
		<polygon class="st1" points="479.6,34.5 479.6,34.5 483,31.1 466,31.1 427.7,69.4 427.7,72.6 441.5,72.6 		"/>
		<polygon class="st1" points="427.7,52.5 449.1,31.1 432.1,31.1 427.7,35.5 		"/>
		<polygon class="st2" points="432.1,31.1 427.7,31.1 427.7,35.5 		"/>
		<polygon class="st2" points="427.7,69.4 466,31.1 449.1,31.1 427.7,52.5 		"/>
		<polygon class="st1" points="488.1,43 458.5,72.6 475.5,72.6 496.5,51.5 517,31.1 500,31.1 		"/>
		<polygon class="st1" points="492.4,72.6 509.4,72.6 513.5,68.5 550.9,31.1 533.9,31.1 505,60 		"/>
		<path class="st1" d="M531.2,72.6c21.5,0,33.4-33.6,52.8-40.7l0.8-0.8h-17l-41.5,41.5H531.2z"/>
		<polygon class="st2" points="479.6,34.5 441.5,72.6 458.5,72.6 488.1,43 488.1,43 500,31.1 483,31.1 		"/>
		<polygon class="st2" points="475.5,72.6 492.4,72.6 505,60 533.9,31.1 517,31.1 496.5,51.5 		"/>
		<polygon class="st2" points="509.4,72.6 517.6,72.6 526.4,72.6 567.9,31.1 550.9,31.1 513.5,68.5 		"/>
		<path class="st2" d="M586.7,31.1h-1.9l-0.8,0.8C584.9,31.6,585.8,31.3,586.7,31.1z"/>
	</g>
</g>
<g>
	<g>
		<rect x="263.1" y="32.6" class="st3" width="192" height="192"/>
		<rect x="429.1" y="218.5" class="st1" width="26" height="3.3"/>
		<rect x="263.1" y="35.6" class="st1" width="192" height="3"/>
		<g>
			<path class="st1" d="M369.1,179.6c24,0,36,42,60,42l2-3c-24,0-36-42-60-42L369.1,179.6z"/>
		</g>
		<rect x="263.1" y="176.6" class="st1" width="108" height="3"/>
	</g>
	<g>
		<path class="st1" d="M423.1,224.6c-2.9-0.6-5.6-1.9-8.1-3.5l-3.5,3.5H423.1z"/>
		<path class="st2" d="M411.4,224.6l3.5-3.5c-3.2-2.1-6.2-4.8-9.2-7.8l-11.3,11.3H411.4z"/>
		<g>
			<polygon class="st1" points="266.2,183.1 263.5,183.1 263.1,183.1 263.1,186.2 			"/>
			<polygon class="st1" points="263.1,220.2 296,187.2 300.1,183.1 291.9,183.1 283.2,183.1 263.1,203.2 			"/>
			<polygon class="st2" points="263.1,220.2 263.1,224.6 275.6,224.6 304.5,195.7 317.1,183.1 300.1,183.1 296,187.2 			"/>
			<polygon class="st2" points="263.1,203.2 283.2,183.1 266.2,183.1 263.1,186.2 			"/>
			<path class="st1" d="M394.4,224.6l11.3-11.3c-2.7-2.8-5.4-5.9-8-9l-20.3,20.3H394.4z"/>
			<path class="st1" d="M360.5,224.6l29.3-29.3c-2.9-3-5.9-5.8-9.1-7.9l-37.2,37.2H360.5z"/>
			<path class="st1" d="M321.5,212.7l-11.9,11.9h17l3.4-3.4l0,0l38-38c-0.2,0-0.3,0-0.5,0H351L321.5,212.7L321.5,212.7L321.5,212.7z
				"/>
			<polygon class="st1" points="275.6,224.6 292.6,224.6 313,204.2 334.1,183.1 317.1,183.1 304.5,195.7 			"/>
			<path class="st2" d="M377.4,224.6l20.3-20.3c-2.6-3.1-5.3-6.2-8-9l-29.3,29.3H377.4z"/>
			<path class="st2" d="M330,221.1l-3.4,3.4h17l37.2-37.2c-3.9-2.6-8-4.2-12.6-4.3L330,221.1L330,221.1z"/>
			<polygon class="st2" points="292.6,224.6 309.5,224.6 321.5,212.7 321.5,212.7 351,183.1 334.1,183.1 313,204.2 			"/>
		</g>
	</g>
</g>
<g>
	<g>
		<rect x="1253.5" y="31.1" class="st3" width="192" height="192"/>
		<rect x="1253.5" y="217" class="st1" width="26" height="3.3"/>
		<rect x="1253.5" y="34.1" class="st1" width="192" height="3"/>
		<g>
			<path class="st1" d="M1339.5,178.1c-24,0-36,42-60,42l-2-3c24,0,36-42,60-42L1339.5,178.1z"/>
		</g>
		<rect x="1337.5" y="175.1" class="st1" width="108" height="3"/>
	</g>
	<g>
		<polygon class="st1" points="1393.6,219.6 1393.6,219.6 1390.2,223.1 1407.1,223.1 1445.5,184.7 1445.5,181.6 1431.7,181.6 		"/>
		<polygon class="st1" points="1445.5,201.7 1424.1,223.1 1441.1,223.1 1445.5,218.7 		"/>
		<polygon class="st2" points="1441.1,223.1 1445.5,223.1 1445.5,218.7 		"/>
		<polygon class="st2" points="1445.5,184.7 1407.1,223.1 1424.1,223.1 1445.5,201.7 		"/>
		<polygon class="st1" points="1385.1,211.2 1414.7,181.6 1397.7,181.6 1376.6,202.7 1356.2,223.1 1373.2,223.1 		"/>
		<polygon class="st1" points="1380.8,181.6 1363.8,181.6 1359.7,185.7 1322.3,223.1 1339.3,223.1 1368.1,194.2 		"/>
		<path class="st1" d="M1342,181.6c-21.5,0-33.4,33.6-52.8,40.7l-0.8,0.8h17l41.5-41.5H1342z"/>
		<polygon class="st2" points="1393.6,219.6 1431.7,181.6 1414.7,181.6 1385.1,211.2 1385.1,211.2 1373.2,223.1 1390.2,223.1 		"/>
		<polygon class="st2" points="1397.7,181.6 1380.8,181.6 1368.1,194.2 1339.3,223.1 1356.2,223.1 1376.6,202.7 		"/>
		<polygon class="st2" points="1363.8,181.6 1355.5,181.6 1346.8,181.6 1305.3,223.1 1322.3,223.1 1359.7,185.7 		"/>
		<path class="st2" d="M1286.5,223.1h1.9l0.8-0.8C1288.3,222.6,1287.4,222.9,1286.5,223.1z"/>
	</g>
</g>
<g>
	<rect x="1611.5" y="31.1" class="st3" width="192" height="192"/>
	<rect x="1777.5" y="34" class="st1" width="26" height="3.3"/>
	<g>
		<path class="st1" d="M1717.5,76.1c24,0,36-42,60-42l2,3c-24,0-36,42-60,42L1717.5,76.1z"/>
	</g>
	<rect x="1611.5" y="76.1" class="st1" width="108" height="3"/>
	<path class="st1" d="M1718.5,71.9c1.3-0.2,2.6-0.4,3.8-0.8c18.6-5.9,30.1-35.8,49.2-40h-11.7h-17h-17h-17h-17h-17h-17h-17h-17
		h-12.5v12.4v16.8v11.8h0.5h4.5h17h17h17h17h17h14.6C1716.8,72.1,1717.7,72,1718.5,71.9z"/>
	<rect x="1777.5" y="217" class="st1" width="26" height="3.3"/>
	<g>
		<path class="st1" d="M1717.5,178.1c24,0,36,42,60,42l2-3c-24,0-36-42-60-42L1717.5,178.1z"/>
	</g>
	<rect x="1611.5" y="175.1" class="st1" width="108" height="3"/>
	<path class="st1" d="M1722.3,183.1c-1.2-0.4-2.5-0.7-3.8-0.8c-0.8-0.1-1.7-0.2-2.5-0.2h-14.6h-17h-17h-17h-17h-17h-4.5h-0.5v11.8
		v16.8v12.4h12.5h17h17h17h17h17h17h17h17h11.7C1752.5,218.9,1740.9,188.9,1722.3,183.1z"/>
</g>
<g>
	<rect x="-464.8" y="-753.6" class="st3" width="192" height="192"/>
	<rect x="-464.8" y="-567.7" class="st1" width="26" height="3.3"/>
	<g>
		<path class="st1" d="M-378.8-606.6c-24,0-36,42-60,42l-2-3c24,0,36-42,60-42L-378.8-606.6z"/>
	</g>
	<rect x="-380.8" y="-609.6" class="st1" width="108" height="3"/>
	<path class="st1" d="M-379.8-602.4c-1.3,0.2-2.6,0.4-3.8,0.8c-18.5,5.9-30.1,35.8-49.2,40h11.7h17h17h17h17h17h17h17h17h12.5V-574
		v-16.8v-11.8h-0.5h-4.5h-17h-17h-17h-17h-17h-14.6C-378.1-602.6-379-602.5-379.8-602.4z"/>
	<rect x="-464.8" y="-750.7" class="st1" width="26" height="3.3"/>
	<g>
		<path class="st1" d="M-378.8-708.6c-24,0-36-42-60-42l-2,3c24,0,36,42,60,42L-378.8-708.6z"/>
	</g>
	<rect x="-380.8" y="-708.6" class="st1" width="108" height="3"/>
	<path class="st1" d="M-383.6-713.6c1.2,0.4,2.5,0.7,3.8,0.8c0.8,0.1,1.7,0.2,2.5,0.2h14.6h17h17h17h17h17h4.5h0.5v-11.8v-16.8
		v-12.4h-12.5h-17h-17h-17h-17h-17h-17h-17h-17h-11.7C-413.8-749.4-402.2-719.5-383.6-713.6z"/>
</g>
<g>
	<g>
		<rect x="607.9" y="34.1" class="st3" width="192" height="192"/>
		<rect x="607.9" y="37.1" class="st1" width="192" height="3"/>
		<rect x="607.9" y="220.1" class="st1" width="192" height="3"/>
	</g>
</g>
<g>
	<rect x="-1066" y="-771.6" class="st3" width="192" height="240"/>
	<rect x="-1090" y="-747.6" class="st3" width="240" height="192"/>
	<rect x="-1090" y="-744.6" class="st1" width="30" height="3"/>
	<rect x="-1090" y="-561.6" class="st1" width="30" height="3"/>
	<rect x="-880" y="-561.6" class="st1" width="30" height="3"/>
	<rect x="-880" y="-744.6" class="st1" width="30" height="3"/>
	<rect x="-880" y="-771.6" class="st1" width="3" height="30"/>
	<rect x="-1063" y="-771.6" class="st1" width="3" height="30"/>
	<rect x="-1063" y="-561.6" class="st1" width="3" height="30"/>
	<rect x="-880" y="-560.6" class="st1" width="3" height="29"/>
	<g>
		<rect x="-1063" y="-645.6" class="st1" width="3" height="12"/>
		<rect x="-1063" y="-621.6" class="st1" width="3" height="12"/>
		<rect x="-1063" y="-597.6" class="st1" width="3" height="12"/>
		<rect x="-1063" y="-735.6" class="st1" width="3" height="6"/>
		<rect x="-1063" y="-717.6" class="st1" width="3" height="12"/>
		<rect x="-1063" y="-573.6" class="st1" width="3" height="6"/>
		<rect x="-1063" y="-669.6" class="st1" width="3" height="12"/>
		<rect x="-1063" y="-693.6" class="st1" width="3" height="12"/>
	</g>
	<g>
		<rect x="-880" y="-573.6" class="st1" width="3" height="6"/>
		<rect x="-880" y="-621.6" class="st1" width="3" height="12"/>
		<rect x="-880" y="-645.6" class="st1" width="3" height="12"/>
		<rect x="-880" y="-735.6" class="st1" width="3" height="6"/>
		<rect x="-880" y="-597.6" class="st1" width="3" height="12"/>
		<rect x="-880" y="-717.6" class="st1" width="3" height="12"/>
		<rect x="-880" y="-669.6" class="st1" width="3" height="12"/>
		<rect x="-880" y="-693.6" class="st1" width="3" height="12"/>
	</g>
	<g>
		<rect x="-964" y="-744.6" class="st1" width="12" height="3"/>
		<rect x="-988" y="-744.6" class="st1" width="12" height="3"/>
		<rect x="-1036" y="-744.6" class="st1" width="12" height="3"/>
		<rect x="-1012" y="-744.6" class="st1" width="12" height="3"/>
		<rect x="-1054" y="-744.6" class="st1" width="6" height="3"/>
		<rect x="-940" y="-744.6" class="st1" width="12" height="3"/>
		<rect x="-892" y="-744.6" class="st1" width="6" height="3"/>
		<rect x="-916" y="-744.6" class="st1" width="12" height="3"/>
	</g>
	<g>
		<rect x="-988" y="-561.6" class="st1" width="12" height="3"/>
		<rect x="-1012" y="-561.6" class="st1" width="12" height="3"/>
		<rect x="-964" y="-561.6" class="st1" width="12" height="3"/>
		<rect x="-1036" y="-561.6" class="st1" width="12" height="3"/>
		<rect x="-892" y="-561.6" class="st1" width="6" height="3"/>
		<rect x="-1054" y="-561.6" class="st1" width="6" height="3"/>
		<rect x="-916" y="-561.6" class="st1" width="12" height="3"/>
		<rect x="-940" y="-561.6" class="st1" width="12" height="3"/>
	</g>
</g>
<g>
	<rect x="-748" y="-789.6" class="st3" width="192" height="240"/>
	<rect x="-772" y="-765.6" class="st3" width="240" height="192"/>
	<rect x="-772" y="-762.6" class="st1" width="30" height="3"/>
	<rect x="-772" y="-579.6" class="st1" width="30" height="3"/>
	<rect x="-562" y="-579.6" class="st1" width="30" height="3"/>
	<rect x="-562" y="-762.6" class="st1" width="30" height="3"/>
	<rect x="-562" y="-789.6" class="st1" width="3" height="30"/>
	<rect x="-745" y="-789.6" class="st1" width="3" height="30"/>
	<rect x="-745" y="-578.6" class="st1" width="3" height="29"/>
	<rect x="-562" y="-578.6" class="st1" width="3" height="29"/>
</g>
<rect x="-96" y="-675.6" class="st3" width="96" height="60"/>
<polygon class="st1" points="436.4,-539.1 377.1,-539.1 363,-514.1 352.4,-514.3 371.6,-548.3 372,-549.1 382.8,-549.1 
	436.4,-549.1 "/>
<g>
	<rect x="-15.4" y="-699.6" class="st3" width="115.2" height="72"/>
	<polygon class="st1" points="13.4,-657.6 71,-657.6 71,-644.4 89,-663.6 71,-682.8 71,-669.6 13.4,-669.6 	"/>
</g>
<g>
	<path class="st3" d="M1796.6,218.9l31.9,1.8c19.2-3.1,32.5-32.3,51.4-37.1c1.3-0.3,2.6-0.5,3.9-0.6c0.8-0.1,1.7-0.1,2.5,0l14.6,0.8
		l16.9,1l16.9,1l16.9,1l16.9,1l16.9,1l4.5,0.3h0.5l6.3-109.8h-0.5l-4.5-0.3l-16.9-1l-16.9-1l-16.9-1l-16.9-1l-16.9-1l-14.6-0.8
		c-0.9,0-1.7-0.2-2.5-0.3c-1.3-0.2-2.6-0.6-3.8-1.1c-18.2-6.9-28-37.5-46.8-42.7l-31.9-1.8L1796.6,218.9L1796.6,218.9z"/>
	
		<rect x="1808.2" y="202" transform="matrix(5.722045e-02 -0.9984 0.9984 5.722045e-02 1491.5659 2009.6007)" class="st1" width="3.3" height="26"/>
	<g>
		<path class="st1" d="M1885,178.9c-24-1.4-38.3,39.9-62.3,38.5l-1.8-3.1c24,1.4,38.3-39.9,62.3-38.5L1885,178.9z"/>
	</g>
	
		<rect x="1935.5" y="126.3" transform="matrix(5.722045e-02 -0.9984 0.9984 5.722045e-02 1646.141 2103.8169)" class="st1" width="3" height="108"/>
	
		<rect x="1818.6" y="19.4" transform="matrix(5.722045e-02 -0.9984 0.9984 5.722045e-02 1683.7578 1847.8655)" class="st1" width="3.3" height="26"/>
	<g>
		<path class="st1" d="M1890.8,77.1c-24-1.4-33.5-44-57.5-45.4l-2.2,2.9c24,1.4,33.5,44,57.5,45.4L1890.8,77.1z"/>
	</g>
	
		<rect x="1941.2" y="27.4" transform="matrix(5.722045e-02 -0.9984 0.9984 5.722045e-02 1750.2245 2016.295)" class="st1" width="3" height="108"/>
	
		<rect x="1801.9" y="32.5" transform="matrix(5.722045e-02 -0.9984 0.9984 5.722045e-02 1661.0319 2015.9492)" class="st0" width="192" height="192"/>
</g>
<g>
	<path class="st3" d="M-243.6-580.2c13.2-10.9,24.1-34.4,43.5-34.4c7.7,0,15.5,0,23.2,0c14.9,0,29.7,0,44.6,0c7.6,0,15.3,0,22.9,0
		c3.2,0,12.5,2,12.5-1.8c0-17.7,0-35.4,0-53.1c0-17.7,0-35.4,0-53.1c0-3.8-9.3-1.8-12.5-1.8c-7.6,0-15.3,0-22.9,0
		c-14.9,0-29.7,0-44.6,0c-7.7,0-15.5,0-23.2,0c-19.5,0-30.3-23.5-43.5-34.4c-9.3-7.7-17.5-6.5-28.7-6.5c-1.8,0-16.5-0.8-16.5,0.6
		c0,11.8,0,23.5,0,35.3c0,42.8,0,85.6,0,128.4c0,9.1,0,18.2,0,27.3c0,0.3,17.8,0.1,19.2,0.1C-259.2-573.7-252.2-573-243.6-580.2"/>
	<g>
		<rect x="-288.8" y="-762.5" class="st1" width="26" height="3.2"/>
		<g>
			<path class="st1" d="M-202.8-720.4c-24,0-36-41.9-60-41.9l-2,3c24,0,36,41.9,60,41.9L-202.8-720.4z"/>
		</g>
		<rect x="-204.8" y="-720.4" class="st1" width="108" height="3"/>
	</g>
	<path class="st1" d="M-202.8-618.6h106v-3h-108c-23.3,0-35.3,39.6-58,41.8l0,0h-26v3.2h26v-0.1
		C-238.8-576.6-226.8-618.6-202.8-618.6z"/>
	<rect x="-288.8" y="-765.4" class="st0" width="192" height="191.7"/>
</g>
<g>
	<path class="st3" d="M306-611.6c-4.2-19-34.1-30.6-40-49.2c-0.4-1.2-0.7-2.5-0.8-3.8c-0.1-0.8-0.2-1.7-0.2-2.5v-14.6v-17v-17v-17
		v-17v-17v-4.5v-0.5H155v0.5v4.5v17v17v17v17v17v14.6c0,0.9-0.1,1.7-0.2,2.5c-0.2,1.3-0.4,2.6-0.8,3.8c-5.9,18.6-35.8,30.1-40,49.2
		v32h192V-611.6L306-611.6z"/>
	<rect x="299.9" y="-605.6" class="st1" width="3.3" height="26"/>
	<g>
		<path class="st1" d="M261-665.6c0,24,42,36,42,60l-3,2c0-24-42-36-42-60L261-665.6z"/>
	</g>
	<rect x="258" y="-771.6" class="st1" width="3" height="108"/>
	<rect x="116.9" y="-605.6" class="st1" width="3.3" height="26"/>
	<g>
		<path class="st1" d="M159-665.6c0,24-42,36-42,60l3,2c0-24,42-36,42-60L159-665.6z"/>
	</g>
	<rect x="159" y="-771.6" class="st1" width="3" height="108"/>
	<rect x="114" y="-771.6" class="st0" width="192" height="192"/>
</g>
<g>
	<rect x="818" y="1473.1" class="st3" width="110" height="192"/>
	<g>
		<polygon class="st1" points="924,1557.1 924,1479.1 921,1479.1 921,1557.1 921,1581.1 921,1665.1 924,1665.1 924,1581.1 		"/>
		<rect x="921" y="1473.1" class="st1" width="3" height="6"/>
		<polygon class="st1" points="822,1581.1 822,1665.1 825,1665.1 825,1581.1 825,1557.1 825,1473.1 822,1473.1 822,1557.1 		"/>
	</g>
	<rect x="777" y="1473.1" class="st0" width="192" height="192"/>
</g>
</svg>
